<?xml version="1.0" encoding="utf-8"?>
<!-- Generator: Adobe Illustrator 23.0.2, SVG Export Plug-In . SVG Version: 6.00 Build 0)  -->
<svg version="1.1" id="Layer_1" xmlns="http://www.w3.org/2000/svg" xmlns:xlink="http://www.w3.org/1999/xlink" x="0px" y="0px"
	 viewBox="0 0 329.13 218" style="enable-background:new 0 0 329.13 218;" xml:space="preserve">
<style type="text/css">
	.st0{fill:url(#SVGID_1_);}
	.st1{fill:url(#SVGID_2_);}
	.st2{fill:url(#SVGID_3_);}
	.st3{fill:url(#SVGID_4_);}
	.st4{fill:url(#SVGID_5_);}
	.st5{fill:url(#SVGID_6_);}
	.st6{fill:url(#SVGID_7_);}
	.st7{fill:url(#SVGID_8_);}
	.st8{fill:url(#SVGID_9_);}
	.st9{fill:url(#SVGID_10_);}
	.st10{fill:url(#SVGID_11_);}
	.st11{fill:url(#SVGID_12_);}
	.st12{fill:url(#SVGID_13_);}
	.st13{fill:url(#SVGID_14_);}
	.st14{fill:url(#SVGID_15_);}
	.st15{fill:url(#SVGID_16_);}
	.st16{fill:url(#SVGID_17_);}
	.st17{fill:url(#SVGID_18_);}
	.st18{fill:#FFFFFF;}
	.st19{fill:url(#SVGID_19_);}
</style>
<g>
	<g>
		<g>
			<g>
				<linearGradient id="SVGID_1_" gradientUnits="userSpaceOnUse" x1="178.2466" y1="38.5767" x2="178.2466" y2="175.4884">
					<stop  offset="0" style="stop-color:#00AEEF"/>
					<stop  offset="1" style="stop-color:#30D5C8"/>
				</linearGradient>
				<path class="st0" d="M209.82,30.79c-2.58-2.59-6.28-3.38-9.55-2.37c-0.01,0-0.02,0-0.02,0c-1.71,0.52-3.56,0.13-4.82-1.13
					L168.15,0l-24.28,24.28c0.49,0.39,0.94,0.8,1.36,1.23c0.16,0.16,0.29,0.29,0.42,0.43c0.4,0.43,0.78,0.87,1.13,1.33L168.15,5.9
					l24.52,24.52c1.21,1.21,1.64,2.98,1.19,4.63c-0.13,0.5-0.22,1.02-0.27,1.53c-0.28,2.75,0.64,5.59,2.74,7.7
					c3.16,3.15,7.98,3.64,11.64,1.44c0.59-0.35,1.16-0.78,1.68-1.27l0.17-0.17c0.45-0.45,0.84-0.93,1.18-1.43
					C213.49,39.14,213.1,34.07,209.82,30.79z M203.08,41.07c-1.96,0-3.54-1.58-3.54-3.54c0-1.95,1.58-3.54,3.54-3.54
					c1.95,0,3.54,1.59,3.54,3.54C206.62,39.49,205.03,41.07,203.08,41.07z"/>
				<linearGradient id="SVGID_2_" gradientUnits="userSpaceOnUse" x1="158.0538" y1="38.5767" x2="158.0538" y2="175.4884">
					<stop  offset="0" style="stop-color:#00AEEF"/>
					<stop  offset="1" style="stop-color:#30D5C8"/>
				</linearGradient>
				<path class="st1" d="M130.71,107.12c-0.02,0.02-0.03,0.03-0.04,0.05l0.11-0.11L130.71,107.12z M191.06,121.64
					c-0.15-0.15-0.29-0.29-0.42-0.44c-0.4-0.42-0.77-0.86-1.12-1.32l-21.37,21.37l-23.17-23.16c-1.89-1.89-2.82-4.56-2.44-7.21
					c0.34-2.34,0.07-5.41-2.58-8.01c-3.18-3.12-7.97-3.63-11.63-1.44c-0.59,0.35-1.15,0.78-1.68,1.27
					c-0.06,0.06-0.11,0.11-0.18,0.17c-0.44,0.45-0.83,0.93-1.17,1.43c-2.5,3.71-2.11,8.78,1.17,12.07c2.44,2.43,5.86,3.28,8.98,2.52
					h0.03c2.15-0.52,4.42,0.01,5.99,1.58l26.68,26.68l24.27-24.28C191.95,122.49,191.49,122.07,191.06,121.64z M133.98,113.07
					c-0.09,0.02-0.17,0.04-0.26,0.04c-0.18,0.04-0.36,0.05-0.55,0.05c-0.1,0-0.21,0-0.31-0.02c-0.1-0.01-0.2-0.02-0.3-0.04
					c-0.18-0.03-0.34-0.07-0.51-0.13c-0.02-0.01-0.04-0.02-0.06-0.03c-0.16-0.06-0.32-0.13-0.47-0.22
					c-0.13-0.07-0.26-0.15-0.39-0.25c-0.14-0.1-0.28-0.22-0.41-0.35c-1.2-1.19-1.38-3.07-0.44-4.47c0.11-0.16,0.24-0.33,0.39-0.48
					l0,0c0.13-0.13,0.26-0.26,0.41-0.37c0.11-0.09,0.22-0.16,0.34-0.23s0.25-0.14,0.38-0.2c0.01,0,0.02-0.01,0.03-0.01
					c0.13-0.05,0.26-0.1,0.4-0.14c0.02-0.01,0.04-0.02,0.07-0.02c0.12-0.03,0.25-0.05,0.37-0.07c0.16-0.03,0.33-0.04,0.5-0.04
					c0.37,0,0.73,0.06,1.07,0.16c0.23,0.07,0.45,0.18,0.66,0.29c0.13,0.07,0.25,0.16,0.37,0.24c0.08,0.06,0.15,0.11,0.23,0.18
					c0.57,0.49,0.98,1.17,1.14,1.95c0,0,0,0.01,0,0.02c0.04,0.31,0.03,0.67-0.03,1.08c-0.14,0.88-1.66,2.74-2.47,3.01
					C134.08,113.04,134.03,113.06,133.98,113.07z"/>
				<linearGradient id="SVGID_3_" gradientUnits="userSpaceOnUse" x1="134.0648" y1="38.5767" x2="134.0648" y2="175.4884">
					<stop  offset="0" style="stop-color:#00AEEF"/>
					<stop  offset="1" style="stop-color:#30D5C8"/>
				</linearGradient>
				<path class="st2" d="M133.98,113.07c0.05-0.01,0.1-0.03,0.16-0.05c-0.03,0.02-0.05,0.02-0.07,0.03
					C134.04,113.06,134.01,113.07,133.98,113.07z"/>
				<linearGradient id="SVGID_4_" gradientUnits="userSpaceOnUse" x1="136.0724" y1="38.5767" x2="136.0724" y2="175.4884">
					<stop  offset="0" style="stop-color:#00AEEF"/>
					<stop  offset="1" style="stop-color:#30D5C8"/>
				</linearGradient>
				<path class="st3" d="M135.5,106.96c0.09,0.07,0.18,0.12,0.26,0.2c0.42,0.41,0.79,0.91,0.88,1.75
					C136.49,108.13,136.07,107.45,135.5,106.96z"/>
				<linearGradient id="SVGID_5_" gradientUnits="userSpaceOnUse" x1="134.5754" y1="38.5767" x2="134.5754" y2="175.4884">
					<stop  offset="0" style="stop-color:#00AEEF"/>
					<stop  offset="1" style="stop-color:#30D5C8"/>
				</linearGradient>
				<path class="st4" d="M134.24,106.25c0.23,0.07,0.45,0.18,0.66,0.29C134.69,106.43,134.47,106.32,134.24,106.25z"/>
				<linearGradient id="SVGID_6_" gradientUnits="userSpaceOnUse" x1="135.09" y1="38.5767" x2="135.09" y2="175.4884">
					<stop  offset="0" style="stop-color:#00AEEF"/>
					<stop  offset="1" style="stop-color:#30D5C8"/>
				</linearGradient>
				<path class="st5" d="M135.27,106.78c-0.12-0.09-0.24-0.17-0.37-0.24C135.03,106.61,135.15,106.7,135.27,106.78z"/>
				<linearGradient id="SVGID_7_" gradientUnits="userSpaceOnUse" x1="135.3871" y1="38.5767" x2="135.3871" y2="175.4884">
					<stop  offset="0" style="stop-color:#00AEEF"/>
					<stop  offset="1" style="stop-color:#30D5C8"/>
				</linearGradient>
				<path class="st6" d="M135.5,106.96c-0.07-0.06-0.15-0.12-0.23-0.17C135.35,106.84,135.43,106.89,135.5,106.96z"/>
				<linearGradient id="SVGID_8_" gradientUnits="userSpaceOnUse" x1="218.1915" y1="38.5767" x2="218.1915" y2="175.4884">
					<stop  offset="0" style="stop-color:#00AEEF"/>
					<stop  offset="1" style="stop-color:#30D5C8"/>
				</linearGradient>
				<path class="st7" d="M241.72,73.57L217.44,49.3c-0.38,0.47-0.8,0.93-1.22,1.36l-0.27,0.27l-0.09,0.08
					c-0.44,0.43-0.92,0.82-1.4,1.2l21.36,21.36l-23.38,23.38c-1.75,1.76-4.25,2.55-6.7,2.15c-0.31-0.05-0.62-0.09-0.93-0.11
					c-2.64-0.17-5.34,0.75-7.36,2.77c-3.16,3.16-3.64,7.97-1.45,11.64c0.36,0.59,0.78,1.15,1.28,1.67c0.05,0.06,0.11,0.12,0.17,0.18
					c0.44,0.45,0.92,0.84,1.42,1.18c3.71,2.49,8.79,2.1,12.06-1.18c2.31-2.3,3.19-5.49,2.64-8.48c0-0.01-0.01-0.02-0.01-0.03
					c-0.48-2.58,0.23-5.23,2.08-7.08L241.72,73.57z M204.19,112.04c-1.95,0-3.54-1.58-3.54-3.54c0-1.95,1.59-3.53,3.54-3.53
					c1.96,0,3.54,1.58,3.54,3.53C207.73,110.46,206.15,112.04,204.19,112.04z"/>
			</g>
			<linearGradient id="SVGID_9_" gradientUnits="userSpaceOnUse" x1="165.9691" y1="38.5767" x2="165.9691" y2="175.4884">
				<stop  offset="0" style="stop-color:#00AEEF"/>
				<stop  offset="1" style="stop-color:#30D5C8"/>
			</linearGradient>
			<path class="st8" d="M193.81,79.32l11.17-11.17l-11.17-11.17l-5.31,5.31c-2.45,2.45-5.77,3.82-9.23,3.82h-36.01
				c-3.46,0-6.78-1.38-9.23-3.82l-0.61-0.61l-6.48,6.48l6.48,6.48l0.61-0.61c2.45-2.45,5.77-3.82,9.23-3.82h36.01
				c3.46,0,6.78,1.38,9.23,3.82L193.81,79.32z"/>
			<linearGradient id="SVGID_10_" gradientUnits="userSpaceOnUse" x1="137.1552" y1="38.5767" x2="137.1552" y2="175.4884">
				<stop  offset="0" style="stop-color:#00AEEF"/>
				<stop  offset="1" style="stop-color:#30D5C8"/>
			</linearGradient>
			<path class="st9" d="M159.76,59.12l11.17-11.17l-11.17-11.17l-5.31,5.31c-2.45,2.45-5.77,3.82-9.23,3.82h-25.53
				c-3.46,0-6.78-1.38-9.23-3.82l-0.61-0.61l-6.48,6.48l6.48,6.48l0.61-0.61c2.45-2.45,5.77-3.82,9.23-3.82h25.53
				c3.46,0,6.78,1.38,9.23,3.82L159.76,59.12z"/>
			<linearGradient id="SVGID_11_" gradientUnits="userSpaceOnUse" x1="138.8124" y1="38.5767" x2="138.8124" y2="175.4884">
				<stop  offset="0" style="stop-color:#00AEEF"/>
				<stop  offset="1" style="stop-color:#30D5C8"/>
			</linearGradient>
			<path class="st10" d="M161.41,100.22l11.17-11.17l-11.17-11.17l-5.31,5.31c-2.45,2.45-5.77,3.82-9.23,3.82h-25.53
				c-3.46,0-6.78-1.38-9.23-3.82l-0.61-0.61l-6.48,6.48l6.48,6.48l0.61-0.61c2.45-2.45,5.77-3.82,9.23-3.82h25.53
				c3.46,0,6.78,1.38,9.23,3.82L161.41,100.22z"/>
			<linearGradient id="SVGID_12_" gradientUnits="userSpaceOnUse" x1="125.4602" y1="38.5767" x2="125.4602" y2="175.4884">
				<stop  offset="0" style="stop-color:#00AEEF"/>
				<stop  offset="1" style="stop-color:#30D5C8"/>
			</linearGradient>
			<polygon class="st11" points="131.19,34.1 125.46,39.84 119.73,34.1 125.46,28.37 			"/>
			<linearGradient id="SVGID_13_" gradientUnits="userSpaceOnUse" x1="107.7887" y1="38.5767" x2="107.7887" y2="175.4884">
				<stop  offset="0" style="stop-color:#00AEEF"/>
				<stop  offset="1" style="stop-color:#30D5C8"/>
			</linearGradient>
			<polygon class="st12" points="113.52,68.49 107.79,74.23 102.06,68.49 107.79,62.76 			"/>
			<linearGradient id="SVGID_14_" gradientUnits="userSpaceOnUse" x1="109.8768" y1="38.5767" x2="109.8768" y2="175.4884">
				<stop  offset="0" style="stop-color:#00AEEF"/>
				<stop  offset="1" style="stop-color:#30D5C8"/>
			</linearGradient>
			<polygon class="st13" points="113.52,113.09 109.88,116.73 106.23,113.09 109.88,109.44 			"/>
			<linearGradient id="SVGID_15_" gradientUnits="userSpaceOnUse" x1="91.0492" y1="38.5767" x2="91.0492" y2="175.4884">
				<stop  offset="0" style="stop-color:#00AEEF"/>
				<stop  offset="1" style="stop-color:#30D5C8"/>
			</linearGradient>
			<polygon class="st14" points="94.69,81.38 91.05,85.02 87.4,81.38 91.05,77.73 			"/>
			<linearGradient id="SVGID_16_" gradientUnits="userSpaceOnUse" x1="95.6338" y1="38.5767" x2="95.6338" y2="175.4884">
				<stop  offset="0" style="stop-color:#00AEEF"/>
				<stop  offset="1" style="stop-color:#30D5C8"/>
			</linearGradient>
			<polygon class="st15" points="99.28,36.33 95.63,39.97 91.99,36.33 95.63,32.68 			"/>
		</g>
		<linearGradient id="SVGID_17_" gradientUnits="userSpaceOnUse" x1="131.2497" y1="38.5767" x2="131.2497" y2="175.4884">
			<stop  offset="0" style="stop-color:#00AEEF"/>
			<stop  offset="1" style="stop-color:#30D5C8"/>
		</linearGradient>
		<path class="st16" d="M130.72,112.12c0.59,0.59,1.33,0.94,2.14,1.02c-1.81-0.15-3.23-1.66-3.23-3.51c0-1.32,0.72-2.47,1.79-3.06
			c-0.23,0.14-0.45,0.3-0.64,0.49l-0.07,0.06c-0.16,0.16-0.31,0.35-0.43,0.53C129.34,109.05,129.52,110.93,130.72,112.12z"/>
		<linearGradient id="SVGID_18_" gradientUnits="userSpaceOnUse" x1="135.4297" y1="38.5767" x2="135.4297" y2="175.4884">
			<stop  offset="0" style="stop-color:#00AEEF"/>
			<stop  offset="1" style="stop-color:#30D5C8"/>
		</linearGradient>
		<path class="st17" d="M136.71,109.63c0,1.62-1.09,2.98-2.57,3.39c0.81-0.27,2.33-2.13,2.47-3.01c0.06-0.41,0.07-0.77,0.03-1.08
			C136.69,109.15,136.71,109.39,136.71,109.63z"/>
	</g>
	<g>
		<g>
			<g>
				<g>
					<path class="st18" d="M36.38,204.45H10.24c-1.88,0-3.59-0.46-5.15-1.38s-2.79-2.16-3.71-3.71C0.46,197.8,0,196.09,0,194.21
						v-15.25c0-1.88,0.46-3.59,1.38-5.15s2.16-2.79,3.71-3.71c1.55-0.92,3.27-1.38,5.15-1.38h26.14c1.88,0,3.59,0.46,5.15,1.38
						c1.55,0.92,2.79,2.16,3.71,3.71s1.38,3.27,1.38,5.15v1.52H39.2v-1.52c0-0.8-0.27-1.47-0.81-2.01
						c-0.54-0.54-1.21-0.81-2.01-0.81H10.24c-0.8,0-1.47,0.27-2.02,0.81c-0.55,0.54-0.82,1.21-0.82,2.01v15.25
						c0,0.8,0.27,1.47,0.82,2.02c0.55,0.55,1.22,0.82,2.02,0.82h26.14c0.8,0,1.47-0.27,2.01-0.82c0.54-0.55,0.81-1.22,0.81-2.02
						v-1.52h7.43v1.52c0,1.88-0.46,3.59-1.38,5.15c-0.92,1.55-2.16,2.79-3.71,3.71S38.26,204.45,36.38,204.45z"/>
					<path class="st18" d="M105.27,204.45H65.2v-35.73h7.4v28.33h32.67V204.45z"/>
					<path class="st18" d="M131.37,204.45h-7.4v-35.73h7.4V204.45z"/>
					<linearGradient id="SVGID_19_" gradientUnits="userSpaceOnUse" x1="175.5541" y1="215.7585" x2="211.4371" y2="215.7585">
						<stop  offset="0" style="stop-color:#00AEEF"/>
						<stop  offset="1" style="stop-color:#30D5C8"/>
					</linearGradient>
					<polygon class="st19" points="180.25,213.52 181.73,218 189.25,218 187.77,213.52 					"/>
					<path class="st18" d="M198.42,173.83c-0.92-1.54-2.16-2.78-3.7-3.7c-1.54-0.92-3.26-1.38-5.16-1.38h-28.31
						c-1.88,0-3.59,0.46-5.15,1.38c-1.55,0.92-2.79,2.16-3.71,3.7c-0.92,1.55-1.38,3.26-1.38,5.13v15.25
						c0.02,1.91,0.48,3.63,1.4,5.17c0.91,1.54,2.15,2.77,3.7,3.69c1.55,0.92,3.27,1.38,5.15,1.38h16l1.93,5.86h7.52l-1.93-5.86h4.78
						c1.89,0,3.61-0.46,5.16-1.38c1.54-0.92,2.78-2.16,3.7-3.7c0.92-1.54,1.38-3.26,1.38-5.16v-15.25
						C199.8,177.08,199.34,175.37,198.42,173.83z M192.4,194.21c0,0.8-0.27,1.47-0.82,2.02c-0.55,0.55-1.22,0.82-2.02,0.82h-6.78
						l-1.15-4.36h-7.52l1.17,4.36h-14.03c-0.8,0-1.47-0.27-2.02-0.82c-0.55-0.55-0.82-1.22-0.82-2.02v-15.25
						c0-0.78,0.27-1.44,0.82-1.99c0.55-0.55,1.22-0.82,2.02-0.82h28.31c0.8,0,1.47,0.27,2.02,0.82c0.55,0.55,0.82,1.21,0.82,1.99
						V194.21z"/>
					<path class="st18" d="M255.88,204.45h-26.14c-1.88,0-3.59-0.46-5.13-1.37c-1.54-0.91-2.78-2.14-3.7-3.69
						c-0.92-1.54-1.38-3.26-1.38-5.13v-25.54h7.38v25.49c0,0.8,0.27,1.47,0.82,2.02c0.55,0.55,1.22,0.82,2.02,0.82h26.14
						c0.8,0,1.47-0.27,2.02-0.82c0.55-0.55,0.82-1.22,0.82-2.02v-25.49h7.4v25.49c0,1.88-0.46,3.59-1.38,5.15
						c-0.92,1.55-2.16,2.79-3.7,3.71C259.5,203.99,257.78,204.45,255.88,204.45z"/>
					<path class="st18" d="M329.13,204.45h-43.36v-35.73h43.36v7.43h-35.96v6.75h31.6v7.4h-31.6v6.75h35.96V204.45z"/>
				</g>
			</g>
		</g>
	</g>
</g>
</svg>
